inDegrees=no
num_controls=7
num_derivatives=13
num_iterations=142
num_multipliers=7
num_parameters=0
num_slacks=7
num_states=26
objective=5.524681
objective_accelerations=0.669406
objective_balance=0.036899
objective_effort=0.248291
objective_height=4.525168
objective_ligament=0.044917
solver_duration=1576.736140
status=Solve_Succeeded
success=true
DataType=double
version=3
OpenSimVersion=4.4-2022-07-23-0e9fedc
endheader
time	/jointset/ground_pelvis/pelvis_tilt/value	/jointset/ground_pelvis/pelvis_tx/value	/jointset/ground_pelvis/pelvis_ty/value	/jointset/hip_l/hip_flexion_l/value	/jointset/hip_l/hip_adduction_l/value	/jointset/hip_l/hip_rotation_l/value	/jointset/back/lumbar_extension/value	/jointset/patellofemoral_l/patellar_flexion_l/value	/jointset/knee_l/knee_flexion_l/value	/jointset/knee_l/knee_adduction_l/value	/jointset/knee_l/knee_rotation_l/value	/jointset/ankle_l/ankle_angle_l/value	/jointset/subtalar_l/subtalar_angle_l/value	/jointset/ground_pelvis/pelvis_tilt/speed	/jointset/ground_pelvis/pelvis_tx/speed	/jointset/ground_pelvis/pelvis_ty/speed	/jointset/hip_l/hip_flexion_l/speed	/jointset/hip_l/hip_adduction_l/speed	/jointset/hip_l/hip_rotation_l/speed	/jointset/back/lumbar_extension/speed	/jointset/patellofemoral_l/patellar_flexion_l/speed	/jointset/knee_l/knee_flexion_l/speed	/jointset/knee_l/knee_adduction_l/speed	/jointset/knee_l/knee_rotation_l/speed	/jointset/ankle_l/ankle_angle_l/speed	/jointset/subtalar_l/subtalar_angle_l/speed	/forceset/tau_hip_flexion_l	/forceset/tau_hip_adduction_l	/forceset/tau_hip_rotation_l	/forceset/tau_knee_flexion_l	/forceset/tau_ankle_angle_l	/forceset/tau_subtalar_angle_l	/forceset/tau_lumbar_extension	lambda_cid13_p0	lambda_cid13_p1	lambda_cid13_p2	lambda_cid13_p3	lambda_cid13_p4	lambda_cid13_p5	lambda_cid14_p0	/jointset/ground_pelvis/pelvis_tilt/accel	/jointset/ground_pelvis/pelvis_tx/accel	/jointset/ground_pelvis/pelvis_ty/accel	/jointset/hip_l/hip_flexion_l/accel	/jointset/hip_l/hip_adduction_l/accel	/jointset/hip_l/hip_rotation_l/accel	/jointset/back/lumbar_extension/accel	/jointset/patellofemoral_l/patellar_flexion_l/accel	/jointset/knee_l/knee_flexion_l/accel	/jointset/knee_l/knee_adduction_l/accel	/jointset/knee_l/knee_rotation_l/accel	/jointset/ankle_l/ankle_angle_l/accel	/jointset/subtalar_l/subtalar_angle_l/accel	gamma_cid13_p0	gamma_cid13_p1	gamma_cid13_p2	gamma_cid13_p3	gamma_cid13_p4	gamma_cid13_p5	gamma_cid14_p0
0	-0.04091760964435965	0.06952968125268699	0.8960071268856054	0.1955292361009247	-0.3214140018404746	-0.4951602907651579	-0.137903700187828	0.07015350928389998	0.07015350928391206	-0.1745328883301776	-0.1290393271706239	-0.06701017130107029	0.004590083431594015	0	0	0	0	0	0	0	0	0	0	0	0	0	0.1076933483960027	-0.1227597650826741	-0.03641769088676857	-0.266652875769086	0.2550025402676207	-0.01184518827134194	-0.04752985943291452	46.67934783842706	-5.60626546478009	3.50190277669081	-27.83914275110703	-516.771157734552	-85.49513460627902	-40.21856587400972	-2.984286266431273	-0.9186446680645848	-0.8266916588818789	10.13012393167856	-2.26021056642432	3.511803411403397	-2.615787903799127	10.9153270248905	10.91532702489219	0.9144071586801493	-0.7478786031813283	4.004609225811931	-0.2950043768852565	-4.689438298996745e-08	1.310027448177403e-07	1.582338194327181e-07	2.37626655067084e-08	-3.431325723434109e-08	-8.882442839744724e-08	-8.318252440296462e-09
0.01	-0.04105819535324783	0.06948457038441451	0.8959670993914303	0.196017442194247	-0.3215249875863374	-0.4949831843197267	-0.1380393474571694	0.0706842174988736	0.07068421749897356	-0.1744901625903561	-0.1290696624006742	-0.06681552152497892	0.004574455776205378	-0.02797531332513965	-0.008975194671383767	-0.00797898280541276	0.0971956045770931	-0.02207695977314685	0.03527533106496546	-0.02686660145605521	0.1056692386778848	0.1056692386778822	0.00853785390837568	-0.006025865162603766	0.03877001922157028	-0.003082379417362975	0.1030904338906188	-0.1240543680262885	-0.035386804898394	-0.2600390036733681	0.2438250637870376	-0.00595516763245941	-0.0437203438675855	43.26744173231086	-7.528867876670308	3.764973770530169	-26.24757274728961	-517.7187849231166	-89.71070210572898	-40.22905488336205	-2.682893191488626	-0.8799052663897824	-0.7795310496027238	9.447422224912097	-2.163451285202325	3.513486381382415	-2.682668404559023	10.32186330421129	10.32186330421011	0.8224231249652413	-0.5237474719952296	3.789207629492699	-0.3084206038484194	-9.140855462998638e-08	1.798030812544197e-07	2.447031523876468e-07	6.733098061642785e-08	-2.566626988874488e-07	-1.540284352692719e-07	-1.158298608357792e-08
0.02	-0.04147428206058009	0.06935111788948611	0.8958480761775539	0.1974642330341371	-0.321853145450413	-0.4944577068781449	-0.1384357751686907	0.07225744630368668	0.07225744630368944	-0.1743622685875408	-0.1291590176820515	-0.06623796968483864	0.004529291150705444	-0.05510019968755994	-0.01766832533118085	-0.01579914394026433	0.1917169493217249	-0.04343442364398391	0.06967419922350582	-0.05215608843413347	0.2085041179547095	0.2085041179546971	0.01703365253869959	-0.01180401029302567	0.07658041280965813	-0.005907394022192532	0.09848751938466109	-0.1253489709699176	-0.03435591891093747	-0.2534251315778757	0.2326475873063039	-6.514699366448972e-05	-0.03991082830258861	39.92369912233779	-9.465088524292973	4.032140616835327	-24.89001015433182	-517.7084946072268	-93.74540143276978	-40.25991100299989	-2.814200873887496	-0.8622318657471457	-0.7949273247696501	9.595271965186205	-2.116311385962483	3.336510830118363	-2.300365008203741	10.34845514467843	10.34845514467865	0.9059961030695056	-0.6983345967449378	3.812684099115502	-0.2435314143786675	-1.359227262700053e-07	2.28603417691099e-07	3.311724853425755e-07	1.108992957261473e-07	-4.790121405405565e-07	-2.192324421410966e-07	-1.484771972685938e-08
0.03	-0.04215787926797891	0.06913204637137084	0.8956513475075957	0.1998439963261342	-0.3223912301706182	-0.4935930701920883	-0.1390772539401778	0.07484549439624097	0.07484549439621974	-0.1741496039935184	-0.1293055798753852	-0.06528703672463215	0.004457243248116931	-0.08147893485864709	-0.02610669505335853	-0.02354203570007771	0.2838106100961126	-0.06405624899461594	0.1031056308698707	-0.07593247723021394	0.308631826429936	0.3086318264299657	0.02547142077476377	-0.01746821011549706	0.1134296239440436	-0.008463334043377015	0.09401539188089061	-0.1191464482550727	-0.03342304932187806	-0.2477471807857073	0.2258823516827973	-0.001273834376070729	-0.03631263164530022	37.71331612494173	-8.714716506996544	4.097076710457213	-23.42221059669799	-517.7991473183878	-91.65100224644836	-40.30981769816539	-2.528679679883948	-0.8287246834783611	-0.7633836496929152	8.952624266405973	-2.016248749255375	3.324292565388513	-2.385197520383458	9.773880563563482	9.773880563569984	0.8085712053651466	-0.4943928861135687	3.594552660559321	-0.2558705304764116	-1.679691017126556e-07	2.420197745162665e-07	3.999800861061151e-07	1.391183258606832e-07	-6.444768412139935e-07	-2.761592964941801e-07	-1.930561026480006e-08
